<svg width="65" height="28" viewBox="0 0 65 28" fill="none" xmlns="http://www.w3.org/2000/svg">
<g clip-path="url(#clip0_3807_241)">
<path d="M13.3974 8.57719C14.0228 8.38709 14.6899 8.28571 15.382 8.28571C18.4117 8.28571 20.9411 10.2475 21.5193 12.8556L25.8137 12.0572C24.8298 7.6267 20.5325 4.29114 15.382 4.29114C14.2007 4.29114 13.0694 4.46603 12.0076 4.79046L13.3974 8.57719Z" fill="#D1D1D1"/>
<path d="M8.33023 21.2655L11.2349 18.2721C9.9396 17.2253 9.12241 15.6969 9.12241 13.9937C9.12241 12.2929 9.9396 10.7646 11.2349 9.72029L8.33023 6.72437C6.1288 8.50367 4.73901 11.1017 4.73901 13.9937C4.73901 16.8882 6.1288 19.4862 8.33023 21.2655" fill="#D1D1D1"/>
<path d="M21.5193 15.1394C20.9384 17.745 18.4117 19.7043 15.3848 19.7043C14.6899 19.7043 14.02 19.6029 13.3974 19.4102L12.0076 23.202C13.0694 23.5239 14.2034 23.6988 15.3848 23.6988C20.5298 23.6988 24.8242 20.3683 25.8137 15.9429L21.5193 15.1394Z" fill="#D1D1D1"/>
<path d="M29.5688 18.3962C29.4271 18.1884 29.2381 17.8564 29.1213 17.6105C28.4403 16.1708 28.4098 14.6805 28.9823 13.251C29.6133 11.682 30.8196 10.4831 32.379 9.86977C34.3386 9.10178 36.5039 9.25132 38.3829 10.2677C39.5753 10.8912 40.4203 11.8544 41.0624 13.218C41.143 13.3929 41.2153 13.5779 41.2875 13.7376L29.5688 18.3962ZM33.4825 12.1839C32.0899 12.7288 31.3728 13.9201 31.5229 15.3141L37.4156 13C36.401 11.9152 35.0835 11.5553 33.4825 12.1839V12.1839ZM38.1494 17.2176C38.1466 17.2176 38.1466 17.2202 38.1466 17.2202L38.0243 17.1441C37.6713 17.6637 37.1237 18.087 36.4316 18.3608C35.1141 18.8829 33.8939 18.7486 33.0155 18.0465L32.9349 18.158C32.9349 18.158 32.9349 18.1555 32.9321 18.1555L31.4367 20.1958C31.8092 20.4315 32.2067 20.6293 32.6236 20.7889C34.2747 21.415 35.9646 21.3846 37.6296 20.7256C38.8332 20.2491 39.7782 19.5242 40.4231 18.6041L38.1494 17.2176ZM45.3819 6.86877V18.2087L47.3164 18.9234L46.2185 21.2604L44.0838 20.4493C43.6057 20.2592 43.2777 19.9702 43.0331 19.6433C42.7969 19.3112 42.6217 18.8525 42.6217 18.2391V6.86877H45.3819ZM50.3907 15.3217C50.3907 14.3561 50.8604 13.4892 51.5998 12.9012L49.6152 10.8836C48.2698 11.9684 47.4221 13.5526 47.4221 15.3167C47.4193 17.0833 48.2671 18.67 49.6096 19.7548L51.5914 17.7372C50.8548 17.1467 50.3907 16.2849 50.3907 15.3217V15.3217ZM53.9152 18.5382C53.526 18.5382 53.148 18.4774 52.7978 18.3709L51.8499 20.9385C52.4976 21.1362 53.1897 21.2452 53.9124 21.2452C57.0533 21.2477 59.6744 19.2149 60.2832 16.5156L57.3702 15.9731C57.0394 17.4407 55.619 18.5407 53.9152 18.5382V18.5382ZM53.9235 9.39833C53.2036 9.39833 52.5115 9.50478 51.8638 9.69995L52.8033 12.2701C53.1563 12.1636 53.5316 12.1053 53.9207 12.1053C55.6274 12.1078 57.0505 13.2129 57.373 14.683L60.286 14.1457C59.6883 11.4412 57.0672 9.40086 53.9235 9.39833V9.39833Z" fill="#A8A8A8"/>
</g>
<defs>
<clipPath id="clip0_3807_241">
<rect width="65" height="28" fill="white"/>
</clipPath>
</defs>
</svg>
